<svg xmlns="http://www.w3.org/2000/svg" aria-hidden="true" style="position:absolute;width:0;height:0;overflow:hidden">
  <defs>
    <symbol id="icon-cloud-with-sun" viewBox="0 0 32 32">
      <path fill="#fdbf00" d="M19.218 21.205c-3.847 0-6.995-3.112-7.03-6.967-.036-3.877 3.09-7.06 6.967-7.096h.066c3.847 0 6.995 3.112 7.03 6.967.036 3.877-3.09 7.06-6.966 7.096h-.065z" style="fill:var(--color1, #fdbf00)"/>
      <path fill="#ff8856" d="M19.22 7.142h-.001v14.063h.065c3.877-.036 7.002-3.219 6.966-7.096-.035-3.855-3.183-6.967-7.03-6.967z" style="fill:var(--color2, #ff8856)"/>
      <path fill="#fdbf00" d="M19.246 5.806a.937.937 0 0 1-.937-.929l-.023-2.538a.937.937 0 0 1 .929-.946h.009c.514 0 .932.414.937.929l.023 2.538a.937.937 0 0 1-.929.946h-.009z" style="fill:var(--color1, #fdbf00)"/>
      <path fill="#ff8856" d="M28.525 15.026a.937.937 0 0 1-.008-1.875l2.547-.023a.937.937 0 0 1 .008 1.875l-2.538.023h-.009zM25.851 8.471a.936.936 0 0 1-.669-1.594l1.778-1.811a.938.938 0 0 1 1.338 1.314L26.52 8.191a.933.933 0 0 1-.669.281z" style="fill:var(--color2, #ff8856)"/>
      <path fill="#fdbf00" d="M12.691 8.592a.936.936 0 0 1-.657-.268l-1.811-1.778a.938.938 0 0 1 1.314-1.338l1.811 1.778a.938.938 0 0 1-.657 1.607z" style="fill:var(--color1, #fdbf00)"/>
      <path fill="#ff8856" d="M22.824 6.486a.937.937 0 0 1-.869-1.29l.952-2.352a.938.938 0 0 1 1.738.704L23.693 5.9a.938.938 0 0 1-.869.586zM30.31 19.556a.926.926 0 0 1-.351-.069l-2.352-.952a.937.937 0 1 1 .704-1.738l2.352.952a.937.937 0 0 1-.352 1.807z" style="fill:var(--color2, #ff8856)"/>
      <path fill="#fdbf00" d="M10.706 11.619a.926.926 0 0 1-.351-.069l-2.352-.952a.937.937 0 1 1 .704-1.738l2.352.952a.937.937 0 0 1-.352 1.807z" style="fill:var(--color1, #fdbf00)"/>
      <path fill="#ff8856" d="M27.901 11.482a.937.937 0 0 1-.366-1.801l2.337-.99a.937.937 0 1 1 .731 1.727l-2.337.99a.941.941 0 0 1-.365.074z" style="fill:var(--color2, #ff8856)"/>
      <path fill="#fdbf00" d="M15.702 6.543a.94.94 0 0 1-.864-.572l-.99-2.337a.938.938 0 0 1 1.726-.731l.99 2.337a.937.937 0 0 1-.863 1.304z" style="fill:var(--color1, #fdbf00)"/>
      <path fill="#fff4f4" d="M13.937 30.607a4.883 4.883 0 0 1-4.201-2.403 4.074 4.074 0 0 1-2.159.623 4.081 4.081 0 0 1-3.897-2.905 4.066 4.066 0 0 1 .011-8.097 4.064 4.064 0 0 1 1.123-1.782 4.056 4.056 0 0 1 4.906-.47 4.875 4.875 0 0 1 8.436 0 4.08 4.08 0 0 1 2.143-.613 4.05 4.05 0 0 1 2.763 1.083c.53.491.914 1.105 1.123 1.782a4.065 4.065 0 0 1 .011 8.097 4.083 4.083 0 0 1-3.897 2.905 4.071 4.071 0 0 1-2.159-.623 4.895 4.895 0 0 1-1.141 1.323 4.885 4.885 0 0 1-3.06 1.08z" style="fill:var(--color3, #fff4f4)"/>
      <path fill="#f6efea" d="M26.5 18.827a4.079 4.079 0 0 0-2.317-1.001 4.058 4.058 0 0 0-1.123-1.782 4.056 4.056 0 0 0-4.906-.47 4.875 4.875 0 0 0-4.218-2.431v17.464a4.877 4.877 0 0 0 4.201-2.403c.64.401 1.389.623 2.159.623a4.081 4.081 0 0 0 3.897-2.905 4.066 4.066 0 0 0 2.306-7.096z" style="fill:var(--color4, #f6efea)"/>
      <path fill="#ff8856" d="M20.16 2.322a.937.937 0 0 0-.937-.929h-.004v4.411l.028.001h.009a.937.937 0 0 0 .929-.946l-.023-2.538z" style="fill:var(--color2, #ff8856)"/>
    </symbol>
    <symbol id="icon-cloud" viewBox="0 0 32 32">
      <path fill="#eee1dc" d="M26.888 20.96c-3.317 0-11.015-2.423-14.428-5.445-1.259-1.114-1.897-2.262-1.897-3.411a4.63 4.63 0 0 1 5.908-4.444 4.62 4.62 0 0 1 4.374-3.114c1.671 0 3.199.909 4.013 2.325a4.63 4.63 0 0 1 4.933 5.494 4.653 4.653 0 0 1 2.21 3.944 4.37 4.37 0 0 1-1.377 3.194c-.81.77-1.923 1.276-3.134 1.424-.179.022-.38.033-.601.033z" style="fill:var(--color5, #eee1dc)"/>
      <path fill="#e0d2cd" d="M29.79 12.366a4.63 4.63 0 0 0-4.933-5.494 4.647 4.647 0 0 0-3.576-2.304v15.323c2.204.673 4.264 1.07 5.607 1.07.22 0 .421-.011.601-.033 1.211-.148 2.324-.654 3.134-1.424A4.373 4.373 0 0 0 32 16.31a4.654 4.654 0 0 0-2.21-3.944z" style="fill:var(--color6, #e0d2cd)"/>
      <path fill="#fff4f4" d="M13.321 27.454a4.7 4.7 0 0 1-4.017-2.272 3.927 3.927 0 0 1-2.042.576 3.933 3.933 0 0 1-3.746-2.77 3.919 3.919 0 0 1 .011-7.795A3.907 3.907 0 0 1 4.6 13.505a3.903 3.903 0 0 1 2.662-1.043c.72 0 1.421.202 2.026.567a4.697 4.697 0 0 1 4.033-2.3 4.697 4.697 0 0 1 4.033 2.3 3.91 3.91 0 0 1 4.688.476 3.91 3.91 0 0 1 1.073 1.689 3.918 3.918 0 0 1 .011 7.795 3.932 3.932 0 0 1-3.746 2.77 3.93 3.93 0 0 1-2.042-.576 4.7 4.7 0 0 1-4.017 2.272z" style="fill:var(--color3, #fff4f4)"/>
      <path fill="#f6efea" d="M25.317 16.155a3.922 3.922 0 0 0-2.203-.961 3.91 3.91 0 0 0-1.073-1.689 3.903 3.903 0 0 0-2.662-1.043c-.72 0-1.421.202-2.026.567a4.697 4.697 0 0 0-4.033-2.3v16.725a4.7 4.7 0 0 0 4.017-2.272 3.927 3.927 0 0 0 2.042.576 3.933 3.933 0 0 0 3.746-2.77 3.92 3.92 0 0 0 2.192-6.834z" style="fill:var(--color4, #f6efea)"/>
    </symbol>
    <symbol id="icon-rain" viewBox="0 0 32 32">
      <path fill="#d9e2e9" d="M17.382 5.184a7.683 7.683 0 0 1 2.804.378 8.28 8.28 0 0 1 2.692 1.521 7.658 7.658 0 0 1 1.92 2.418c.311.608.485 1.289.692 1.946.046.147.068.206.234.25 2.071.546 3.47 1.839 4.171 3.861a5.07 5.07 0 0 1 .286 2.079c-.171 2.061-1.117 3.665-2.908 4.73-.886.527-1.859.762-2.893.761-5.196-.004-10.392.01-15.589-.012-1.062-.005-2.003-.42-2.799-1.148a4.455 4.455 0 0 1-1.41-2.497 4.353 4.353 0 0 1 .217-2.43c.047-.121.091-.244.154-.398.085-.123.148-.218.222-.303.376-.426.712-.901 1.141-1.264.837-.708 1.841-.961 2.935-.893.435.027.449.003.433-.425-.044-1.152.069-2.276.484-3.365a8.012 8.012 0 0 1 2.61-3.535c1.354-1.055 2.904-1.571 4.604-1.675z" style="fill:var(--color1, #d9e2e9)"/>
      <path fill="#afc3d1" d="M17.373 5.164c-1.691.123-3.241.639-4.595 1.694a8.012 8.012 0 0 0-2.61 3.535c-.415 1.089-.527 2.213-.484 3.365.016.428.002.452-.433.425-1.094-.069-2.098.184-2.935.893-.43.363-.766.838-1.141 1.264-.074.084-.137.179-.224.279-.746-.168-1.389-.501-1.906-1.045-.598-.628-.927-1.377-1.057-2.243-.137-.917.075-1.746.542-2.5.606-.976 1.479-1.61 2.649-1.77.1-.014.198-.049.298-.059S5.68 9 5.696 9c.169-.76.276-1.497.5-2.196.36-1.122 1.064-2.019 1.975-2.774a6.295 6.295 0 0 1 2.443-1.238c.845-.225 1.704-.211 2.571-.113 1.178.133 2.193.636 3.102 1.352.402.316.719.739 1.084 1.133z" style="fill:var(--color2, #afc3d1)"/>
      <path fill="#69d7f7" d="M16.829 27.021c-.476.726-.937 1.435-1.403 2.139-.171.259-.536.431-.746.368-.587-.174-.738-.633-.383-1.168l1.984-2.985c.157-.236.313-.472.472-.706.262-.387.819-.426 1.117-.08.155.18.197.6.058.81-.356.538-.723 1.069-1.099 1.621zM25.734 26.167l-1.985 2.968c-.221.33-.449.437-.775.366-.5-.109-.699-.602-.416-1.025l2.549-3.806c.203-.303.641-.406.932-.218.279.18.382.669.195.965-.156.247-.324.488-.5.75zM8.752 24.405c.201-.009.398-.04.565.017.371.128.505.572.275.948-.375.612-.779 1.206-1.177 1.804-.448.675-.902 1.345-1.353 2.018-.214.318-.673.429-.974.231-.257-.169-.423-.558-.151-.971.83-1.26 1.666-2.515 2.506-3.768.07-.105.193-.174.31-.278zM11.233 26.236c.361-.527.715-1.032 1.045-1.552.187-.296.598-.425.982-.183.25.157.355.595.173.879-.42.655-.849 1.304-1.293 1.943-.243.349-.651.398-.995.16-.255-.176-.299-.628-.094-.944.06-.093.111-.191.183-.303zM21.984 25.985c-.293.439-.557.871-.851 1.281-.253.352-.714.429-1.02.165-.265-.229-.347-.54-.072-.948.39-.578.767-1.164 1.148-1.747.188-.287.466-.465.782-.343.205.079.392.307.494.513.061.122-.031.347-.105.503-.094.199-.238.374-.378.575z" style="fill:var(--color3, #69d7f7)"/>
    </symbol>
    <symbol id="icon-windy" viewBox="0 0 32 32">
      <path d="M25.316 2.643a6.712 6.712 0 0 0-4.185 1.472.937.937 0 1 0 1.174 1.462 4.827 4.827 0 0 1 3.011-1.059c2.652 0 4.809 2.157 4.809 4.809s-2.158 4.809-4.809 4.809H7.688a.938.938 0 0 0 0 1.876h17.628c3.686 0 6.684-2.999 6.684-6.684s-2.999-6.684-6.684-6.684z"/>
      <path d="M5.891 12.268h10.015a.938.938 0 0 0 0-1.875H5.891a.938.938 0 1 0 0 1.875zM15.643 17.893H.937a.938.938 0 0 0 0 1.876h14.706c2.127 0 3.857 1.73 3.857 3.857s-1.73 3.857-3.857 3.857a3.872 3.872 0 0 1-2.414-.849.937.937 0 1 0-1.174 1.462 5.75 5.75 0 0 0 3.588 1.262c3.16 0 5.732-2.571 5.732-5.732s-2.571-5.732-5.732-5.732zM.938 12.268h1.265a.938.938 0 0 0 0-1.875H.938a.938.938 0 1 0 0 1.875z"/>
      <path d="M12.25 22.563a.938.938 0 0 0-.938-.938H5.687a.938.938 0 0 0 0 1.876h5.625c.518 0 .938-.42.938-.938z"/>
    </symbol>
    <symbol id="icon-location" viewBox="0 0 32 32">
      <path fill="none" stroke="#aeb3b9" stroke-width="2.909" d="M27.636 16c0 6.427-5.21 11.636-11.636 11.636S4.364 22.426 4.364 16C4.364 9.573 9.574 4.364 16 4.364S27.636 9.574 27.636 16z" style="stroke:var(--color7, #aeb3b9)"/>
      <path fill="#aeb3b9" d="M14.545 0h2.909v5.818h-2.909V0zM14.545 26.182h2.909V32h-2.909v-5.818zM5.818 14.545v2.909H0v-2.909h5.818zM32 14.545v2.909h-5.818v-2.909H32z" style="fill:var(--color7, #aeb3b9)"/>
    </symbol>
    <symbol id="icon-star" viewBox="0 0 32 32">
      <path fill="none" stroke="#7e8691" stroke-width="1.454" d="m18.901 12.734.163.503h9.915l-8.021 5.828 3.064 9.429-8.021-5.827-.428.31-7.595 5.517 3.065-9.429-8.021-5.828h9.915l3.064-9.43 2.901 8.928z" style="stroke:var(--color8, #7e8691)"/>
    </symbol>
    <symbol id="icon-close" viewBox="0 0 32 32">
      <path stroke-width="4" d="m2.667 2.667 26.667 26.667m-26.667-.001L29.334 2.666"/>
    </symbol>
        <symbol id="icon-next" viewBox="0 0 7 10">
      <path stroke="#000" stroke-width="1.5" d="m1 1 4 4-4 4"/>
    </symbol>
    <symbol id="icon-right-arrow" viewBox="0 0 22 32">
      <path stroke-width="4.8" d="M3.2 3.2 16 16 3.2 28.8"/>
    </symbol>
    <symbol id="icon-left-arrow" viewBox="0 0 22 32">
      <path stroke-width="4.8" d="M19.2 28.8 6.4 16 19.2 3.2"/>
    </symbol>
    <symbol id="icon-sun" viewBox="0 0 32 32">
      <path fill="#fdbf00" d="M16 24.688c-4.79 0-8.688-3.897-8.688-8.688S11.209 7.312 16 7.312c4.79 0 8.688 3.897 8.688 8.688S20.791 24.688 16 24.688zM16 5.103a.938.938 0 0 1-.938-.938V.937a.938.938 0 0 1 1.876 0v3.228c0 .518-.42.938-.938.938z" style="fill:var(--color1, #fdbf00)"/>
      <path fill="#ff8856" d="M31.063 16.938h-3.228a.938.938 0 0 1 0-1.876h3.228a.938.938 0 0 1 0 1.876z" style="fill:var(--color2, #ff8856)"/>
      <path fill="#fdbf00" d="M16 32a.938.938 0 0 1-.938-.938v-3.228a.938.938 0 0 1 1.876 0v3.228c0 .518-.42.938-.938.938zM4.165 16.938H.937a.938.938 0 0 1 0-1.876h3.228a.938.938 0 0 1 0 1.876z" style="fill:var(--color1, #fdbf00)"/>
      <path fill="#ff8856" d="M24.369 8.569a.938.938 0 0 1-.663-1.601l2.282-2.282a.938.938 0 0 1 1.326 1.326l-2.282 2.282a.935.935 0 0 1-.663.275zM26.651 27.588a.935.935 0 0 1-.663-.275l-2.282-2.282a.938.938 0 0 1 1.326-1.326l2.282 2.282a.938.938 0 0 1-.663 1.601z" style="fill:var(--color2, #ff8856)"/>
      <path fill="#fdbf00" d="M5.349 27.588a.938.938 0 0 1-.663-1.601l2.282-2.282a.938.938 0 0 1 1.326 1.326l-2.282 2.282a.935.935 0 0 1-.663.275zM7.631 8.569a.931.931 0 0 1-.663-.275L4.686 6.012a.938.938 0 0 1 1.326-1.326l2.282 2.282a.938.938 0 0 1-.663 1.601z" style="fill:var(--color1, #fdbf00)"/>
      <path fill="#ff8856" d="M20.541 6.009a.938.938 0 0 1-.865-1.298l1.239-2.981a.938.938 0 0 1 1.732.72l-1.239 2.981a.94.94 0 0 1-.866.578zM29.909 22.718a.936.936 0 0 1-.36-.072l-2.98-1.239a.938.938 0 1 1 .72-1.732l2.981 1.239a.937.937 0 0 1-.36 1.803z" style="fill:var(--color2, #ff8856)"/>
      <path fill="#fdbf00" d="M10.219 30.847a.936.936 0 0 1-.866-1.297l1.239-2.981a.938.938 0 1 1 1.732.72l-1.239 2.98a.94.94 0 0 1-.866.578zM5.071 12.396a.928.928 0 0 1-.359-.072l-2.981-1.239a.938.938 0 1 1 .72-1.732l2.981 1.239a.938.938 0 0 1-.36 1.804z" style="fill:var(--color1, #fdbf00)"/>
      <path fill="#ff8856" d="M26.94 12.421a.939.939 0 0 1-.358-1.804l2.983-1.232a.937.937 0 0 1 .715 1.733l-2.983 1.232a.94.94 0 0 1-.357.071zM21.748 30.861a.937.937 0 0 1-.867-.58l-1.232-2.983a.936.936 0 1 1 1.733-.715l1.232 2.983a.936.936 0 0 1-.866 1.295z" style="fill:var(--color2, #ff8856)"/>
      <path fill="#fdbf00" d="M2.078 22.685a.937.937 0 0 1-.358-1.804l2.983-1.232a.936.936 0 1 1 .715 1.733l-2.983 1.232a.94.94 0 0 1-.357.071zM11.484 5.999a.937.937 0 0 1-.867-.58L9.385 2.436a.936.936 0 1 1 1.733-.715l1.232 2.983a.936.936 0 0 1-.866 1.295z" style="fill:var(--color1, #fdbf00)"/>
      <path fill="#ff8856" d="M16 0v5.103c.518 0 .938-.42.938-.938V.937A.938.938 0 0 0 16-.001zM16 7.313v17.375c4.79 0 8.688-3.897 8.688-8.688S20.791 7.312 16 7.312zM16 26.897V32c.518 0 .938-.42.938-.938v-3.228a.938.938 0 0 0-.938-.938z" style="fill:var(--color2, #ff8856)"/>
    </symbol>
    <symbol id="icon-snow" viewBox="0 0 32 32">
      <path fill="#7dd5f4" d="M19.531 28.438a.938.938 0 0 0-.938-.938h-.33l.234-.234a.938.938 0 0 0-1.326-1.326l-.234.234v-.362a.937.937 0 0 0-1.876 0v.362l-.256-.256a.938.938 0 0 0-1.326 1.326l.256.256h-.33a.938.938 0 0 0 0 1.876h.33l-.234.234a.938.938 0 0 0 1.326 1.326l.234-.234v.362a.938.938 0 0 0 1.876 0v-.362l.256.256a.935.935 0 0 0 1.326 0 .938.938 0 0 0 0-1.326l-.256-.256h.33c.518 0 .938-.42.938-.938zM7.063 22.5a.938.938 0 0 0-.938-.938h-.33l.234-.234a.938.938 0 0 0-1.326-1.326l-.234.234v-.362a.938.938 0 0 0-1.876 0v.362l-.256-.256a.938.938 0 0 0-1.326 1.326l.256.256H.936a.938.938 0 0 0 0 1.876h.33l-.234.234a.938.938 0 0 0 1.326 1.326l.234-.234v.362a.938.938 0 0 0 1.876 0v-.362l.256.256a.935.935 0 0 0 1.326 0 .938.938 0 0 0 0-1.326l-.256-.256h.33c.518 0 .938-.42.938-.938z" style="fill:var(--color9, #7dd5f4)"/>
      <path fill="#4793ff" d="M32 22.5a.938.938 0 0 0-.938-.938h-.33l.234-.234a.938.938 0 0 0-1.326-1.326l-.234.234v-.362a.938.938 0 0 0-1.876 0v.362l-.256-.256a.938.938 0 0 0-1.326 1.326l.256.256h-.33a.938.938 0 0 0 0 1.876h.33l-.234.234a.938.938 0 0 0 1.326 1.326l.234-.234v.362a.938.938 0 0 0 1.876 0v-.362l.256.256a.935.935 0 0 0 1.326 0 .938.938 0 0 0 0-1.326l-.256-.256h.33c.518 0 .938-.42.938-.938z" style="fill:var(--color10, #4793ff)"/>
      <path fill="#fff4f4" d="M10.781 23.375c.516 0 .938-.421.938-.938s-.421-.938-.938-.938-.938.421-.938.938a.94.94 0 0 0 .938.938zM21.219 23.375c.516 0 .938-.421.938-.938s-.421-.938-.938-.938-.938.421-.938.938a.94.94 0 0 0 .938.938zM5.688 32c.516 0 .938-.421.938-.938s-.421-.938-.938-.938c-.516 0-.938.421-.938.938s.421.938.938.938zM26.313 32c.516 0 .938-.421.938-.938s-.421-.938-.938-.938c-.516 0-.938.421-.938.938s.421.938.938.938zM16 19.938a5.516 5.516 0 0 1-3.452-1.218 5.514 5.514 0 0 1-1.364-1.628 4.574 4.574 0 0 1-2.553.784 4.579 4.579 0 0 1-4.4-3.356 4.56 4.56 0 0 1-4.23-4.55 4.568 4.568 0 0 1 4.242-4.551 4.557 4.557 0 0 1 1.288-2.095 4.552 4.552 0 0 1 5.635-.443 5.542 5.542 0 0 1 1.367-1.648C13.509.439 14.741.002 16.001.002s2.492.437 3.468 1.231a5.53 5.53 0 0 1 1.367 1.648 4.572 4.572 0 0 1 2.535-.772c1.153 0 2.254.431 3.1 1.215a4.539 4.539 0 0 1 1.288 2.096 4.562 4.562 0 0 1 .012 9.101 4.579 4.579 0 0 1-4.4 3.356c-.917 0-1.806-.28-2.553-.784a5.527 5.527 0 0 1-1.364 1.628 5.51 5.51 0 0 1-3.452 1.218z" style="fill:var(--color3, #fff4f4)"/>
      <path fill="#f6efea" d="M30.457 6.549a4.567 4.567 0 0 0-2.699-1.131 4.56 4.56 0 0 0-6.923-2.539 5.539 5.539 0 0 0-1.366-1.648A5.511 5.511 0 0 0 16.001 0v19.937a5.516 5.516 0 0 0 3.452-1.218 5.533 5.533 0 0 0 1.365-1.628 4.574 4.574 0 0 0 2.553.784 4.579 4.579 0 0 0 4.4-3.356 4.564 4.564 0 0 0 2.687-7.97z" style="fill:var(--color4, #f6efea)"/>
      <path fill="#4793ff" d="M19.531 28.438a.938.938 0 0 0-.938-.938h-.33l.234-.234a.938.938 0 0 0-1.326-1.326l-.234.234v-.362a.937.937 0 0 0-.938-.937V32c.518 0 .938-.42.938-.938V30.7l.256.256a.935.935 0 0 0 1.326 0 .938.938 0 0 0 0-1.326l-.256-.256h.33c.518 0 .938-.42.938-.937z" style="fill:var(--color10, #4793ff)"/>
    </symbol>
    <symbol id="icon-sunrise" viewBox="0 0 32 32">
      <path d="M16 5.103c.518 0 .938-.42.938-.938V.937a.938.938 0 0 0-1.876 0v3.228c0 .518.42.938.938.938zM31.063 15.063h-3.228a.938.938 0 0 0 0 1.876h3.228a.938.938 0 0 0 0-1.876zM5.103 16a.938.938 0 0 0-.938-.938H.937a.938.938 0 0 0 0 1.876h3.228c.518 0 .938-.42.938-.938zM24.368 8.569c.24 0 .48-.092.663-.275l2.282-2.282a.938.938 0 0 0-1.326-1.326l-2.282 2.282a.938.938 0 0 0 .663 1.601zM25.031 23.705a.938.938 0 0 0-1.326 1.326l2.282 2.282a.935.935 0 0 0 1.326 0 .938.938 0 0 0 0-1.326l-2.282-2.282zM6.969 23.705l-2.282 2.282a.938.938 0 0 0 1.326 1.326l2.282-2.282a.938.938 0 0 0-1.326-1.326zM6.969 8.294a.935.935 0 0 0 1.326 0 .938.938 0 0 0 0-1.326L6.013 4.686a.938.938 0 0 0-1.326 1.326l2.282 2.282zM20.182 5.937a.938.938 0 0 0 1.225-.506l1.239-2.981a.938.938 0 0 0-1.731-.72l-1.239 2.981a.937.937 0 0 0 .506 1.225zM30.269 20.915l-2.981-1.239a.938.938 0 0 0-.72 1.732l2.98 1.239a.936.936 0 0 0 1.226-.506.938.938 0 0 0-.506-1.226zM11.818 26.063a.938.938 0 0 0-1.226.506l-1.239 2.98a.938.938 0 0 0 1.731.72l1.239-2.981a.937.937 0 0 0-.506-1.225zM1.731 11.085l2.981 1.239a.938.938 0 0 0 .719-1.732L2.45 9.353a.938.938 0 0 0-.72 1.732zM26.073 11.841a.937.937 0 0 0 1.224.509l2.983-1.232a.938.938 0 0 0-.715-1.733l-2.983 1.232a.938.938 0 0 0-.509 1.224zM21.383 26.582a.938.938 0 0 0-1.733.715l1.232 2.983a.937.937 0 1 0 1.733-.715l-1.232-2.983zM5.927 20.159a.938.938 0 0 0-1.224-.509L1.72 20.882a.938.938 0 0 0 .715 1.733l2.983-1.232a.938.938 0 0 0 .509-1.224zM10.617 5.419a.937.937 0 1 0 1.733-.715l-1.232-2.983a.938.938 0 0 0-1.733.715l1.232 2.983z"/>
      <path d="M16.938 24.637c4.351-.469 7.75-4.163 7.75-8.637 0-4.79-3.897-8.688-8.688-8.688S7.312 11.209 7.312 16c0 4.474 3.399 8.168 7.75 8.637v6.426a.938.938 0 0 0 1.876 0v-6.426zM9.187 16c0-3.756 3.056-6.813 6.813-6.813s6.813 3.056 6.813 6.813c0 3.438-2.561 6.289-5.875 6.748V19.17l.212.212a.938.938 0 0 0 1.326-1.326l-1.817-1.817a.937.937 0 0 0-1.316-.009l-1.875 1.822a.938.938 0 0 0 1.307 1.345l.289-.281v3.633c-3.314-.458-5.875-3.309-5.875-6.748z"/>
    </symbol>
    <symbol id="icon-sunset" viewBox="0 0 32 32">
      <path d="M16 5.103c.518 0 .938-.42.938-.938V.937a.938.938 0 0 0-1.876 0v3.228c0 .518.42.938.938.938zM31.063 15.063h-3.228a.938.938 0 0 0 0 1.876h3.228a.938.938 0 0 0 0-1.876zM5.103 16a.938.938 0 0 0-.938-.938H.937a.938.938 0 0 0 0 1.876h3.228c.518 0 .938-.42.938-.938zM24.368 8.569c.24 0 .48-.092.663-.275l2.282-2.282a.938.938 0 0 0-1.326-1.326l-2.282 2.282a.938.938 0 0 0 .663 1.601zM25.031 23.705a.938.938 0 0 0-1.326 1.326l2.282 2.282a.935.935 0 0 0 1.326 0 .938.938 0 0 0 0-1.326l-2.282-2.282zM6.969 23.705l-2.282 2.282a.938.938 0 0 0 1.326 1.326l2.282-2.282a.938.938 0 0 0-1.326-1.326zM6.969 8.294a.935.935 0 0 0 1.326 0 .938.938 0 0 0 0-1.326L6.013 4.686a.938.938 0 0 0-1.326 1.326l2.282 2.282zM20.182 5.937a.938.938 0 0 0 1.225-.506l1.239-2.981a.938.938 0 0 0-1.731-.72l-1.239 2.981a.937.937 0 0 0 .506 1.225zM30.269 20.915l-2.98-1.239a.938.938 0 0 0-.72 1.732l2.98 1.239a.935.935 0 0 0 1.225-.506.938.938 0 0 0-.506-1.226zM11.818 26.063a.938.938 0 0 0-1.226.506l-1.239 2.98a.938.938 0 0 0 1.732.72l1.239-2.98a.938.938 0 0 0-.506-1.226zM1.731 11.085l2.981 1.239a.938.938 0 0 0 .719-1.732L2.45 9.353a.938.938 0 0 0-.72 1.732zM26.073 11.841a.937.937 0 0 0 1.224.509l2.983-1.232a.938.938 0 0 0-.715-1.733l-2.983 1.232a.938.938 0 0 0-.509 1.224zM21.383 26.582a.938.938 0 0 0-1.733.715l1.232 2.983a.939.939 0 0 0 1.224.509.938.938 0 0 0 .509-1.224l-1.232-2.983zM5.927 20.158a.938.938 0 0 0-1.224-.509L1.72 20.881a.938.938 0 0 0 .715 1.733l2.983-1.232a.938.938 0 0 0 .509-1.224zM10.617 5.419a.937.937 0 1 0 1.733-.715l-1.232-2.983a.938.938 0 0 0-1.733.715l1.232 2.983z"/>
      <path d="m17.15 28.582-.212.212v-4.158c4.351-.469 7.75-4.163 7.75-8.637 0-4.79-3.897-8.688-8.688-8.688s-8.688 3.897-8.688 8.688c0 4.474 3.399 8.168 7.75 8.637v4.213l-.289-.281a.938.938 0 0 0-1.307 1.345l1.875 1.822a.934.934 0 0 0 1.316-.01l1.817-1.817a.938.938 0 0 0-1.326-1.326zM9.187 16c0-3.756 3.056-6.813 6.813-6.813s6.813 3.056 6.813 6.813c0 3.438-2.561 6.289-5.875 6.748v-2.225a.938.938 0 0 0-1.876 0v2.225C11.748 22.29 9.187 19.439 9.187 16z"/>
    </symbol>
    <symbol id="icon-humidity" viewBox="0 0 30 32">
      <path d="M27.706 9.399c-.597-1.021-1.234-1.986-1.796-2.718-.828-1.079-1.317-1.461-1.868-1.461-.523 0-.948.366-1.426.916-.352.405-.771.966-1.212 1.624a31.567 31.567 0 0 0-1.759 2.965 62.943 62.943 0 0 0-1.461-2.643c-1.203-2.059-2.486-4.001-3.613-5.47C12.723.203 12.029.002 11.522.002s-1.201.202-3.049 2.611c-1.127 1.469-2.41 3.411-3.612 5.47C3.415 10.557.053 16.722.053 20.534c0 6.324 5.145 11.469 11.469 11.469 5.934 0 10.829-4.529 11.411-10.312a6.082 6.082 0 0 0 7.183-5.973c0-1.906-1.511-4.776-2.411-6.317zM11.523 30.125c-5.29 0-9.594-4.304-9.594-9.594 0-2.233 1.6-6.358 4.279-11.034C8.6 5.324 10.732 2.64 11.523 1.978c.791.662 2.923 3.345 5.315 7.519 2.679 4.676 4.279 8.8 4.279 11.034 0 5.29-4.304 9.594-9.594 9.594zm12.519-10.21a4.24 4.24 0 0 1-1.09-.143c-.207-2.066-1.185-4.634-2.256-6.925 1.043-2.328 2.589-4.622 3.345-5.498.477.55 1.322 1.709 2.262 3.37 1.214 2.147 1.939 4.014 1.939 4.995 0 2.316-1.884 4.2-4.2 4.2z"/>
      <path d="M14.097 16.073a.938.938 0 0 0-1.281.343l-4.21 7.293a.938.938 0 0 0 1.624.938l4.21-7.293a.938.938 0 0 0-.343-1.281zM9.179 17.937c0-.516-.421-.938-.937-.938s-.938.421-.938.938a.938.938 0 0 0 1.875 0zM14.492 22.312c-.516 0-.938.421-.938.938s.421.938.938.938c.516 0 .938-.421.938-.938s-.421-.938-.938-.938z"/>
    </symbol>
    <symbol id="icon-time" viewBox="0 0 28 32">
      <path d="M16.66 4.12c.206-.391.324-.836.324-1.308 0-1.551-1.262-2.813-2.813-2.813s-2.813 1.262-2.813 2.813c0 .472.117.917.324 1.308C5.118 5.298.121 11.051.121 17.949c0 7.747 6.303 14.05 14.05 14.05s14.05-6.303 14.05-14.05c0-6.898-4.997-12.651-11.561-13.829zm-2.489-2.245c.517 0 .938.421.938.938s-.421.938-.938.938c-.517 0-.938-.421-.938-.938s.421-.938.938-.938zm0 28.25c-6.713 0-12.175-5.462-12.175-12.175S7.458 5.775 14.171 5.775c6.713 0 12.175 5.462 12.175 12.175s-5.462 12.175-12.175 12.175z"/>
      <path d="m21.503 10.69-.04-.044a.638.638 0 0 0-.047-.042 10.293 10.293 0 0 0-7.245-2.978 10.29 10.29 0 0 0-7.267 2.998l-.025.022-.019.02a10.292 10.292 0 0 0-3.014 7.284c0 .518.42.938.938.938h1.063a.938.938 0 0 0 0-1.876h-.073a8.415 8.415 0 0 1 1.805-4.342l.052.052a.935.935 0 0 0 1.326 0 .938.938 0 0 0 0-1.326l-.05-.051a8.407 8.407 0 0 1 4.328-1.794v.073a.938.938 0 0 0 1.876 0v-.073a8.405 8.405 0 0 1 4.327 1.795l-.05.05a.938.938 0 0 0 1.326 1.326l.051-.051A8.408 8.408 0 0 1 22.569 17h-.084a.938.938 0 1 0 0 1.875h1.076a.937.937 0 0 0 .936-.939 10.29 10.29 0 0 0-2.993-7.246z"/>
      <path d="M18.423 13.698a.938.938 0 0 0-1.326 0l-3.915 3.915a2.8 2.8 0 0 0-1.407-.268.938.938 0 1 0 .131 1.87.936.936 0 0 1 1.001.989.937.937 0 0 0 1.872.109 2.813 2.813 0 0 0-.271-1.374l3.915-3.915a.938.938 0 0 0 0-1.326zM19.546 24.688H8.796a.938.938 0 1 0 0 1.875h10.75a.938.938 0 0 0 0-1.875z"/>
    </symbol>
    <symbol id="icon-sun-ice" viewBox="0 0 32 32">
      <path fill="#fdbf00" d="M16 25.375c-5.169 0-9.375-4.206-9.375-9.375S10.831 6.625 16 6.625c.518 0 .938.42.938.938v16.875c0 .518-.42.938-.938.938z" style="fill:var(--color1, #fdbf00)"/>
      <path fill="#7dd5f4" d="M31.063 15.063h-1.457l.714-1.237a.938.938 0 0 0-1.624-.938l-1.256 2.175h-9.177l6.489-6.489 2.425.65a.937.937 0 0 0 .485-1.811l-1.38-.37.942-.942a.938.938 0 0 0-1.326-1.326l-.942.942-.37-1.38a.938.938 0 0 0-1.811.485l.65 2.425-6.489 6.489V4.559l2.175-1.256a.938.938 0 0 0-.938-1.624l-1.237.714V.936a.938.938 0 0 0-1.876 0v30.125a.938.938 0 0 0 1.876 0v-1.457l1.237.714a.938.938 0 1 0 .938-1.624l-2.175-1.256v-9.177l6.489 6.489-.65 2.426a.938.938 0 0 0 1.811.485l.37-1.38.942.942a.935.935 0 0 0 1.326 0 .938.938 0 0 0 0-1.326l-.942-.942 1.38-.37a.938.938 0 0 0-.485-1.811l-2.425.65-6.489-6.489h9.177l1.256 2.175a.938.938 0 1 0 1.624-.938l-.714-1.237h1.457a.938.938 0 0 0 0-1.876z" style="fill:var(--color9, #7dd5f4)"/>
      <path fill="#fdbf00" d="M3.941 16.937H.938a.938.938 0 0 1 0-1.876h3.003a.938.938 0 0 1 0 1.876zM7.473 8.41a.931.931 0 0 1-.663-.275L4.686 6.011a.938.938 0 0 1 1.326-1.326l2.124 2.124a.938.938 0 0 1-.663 1.601zM5.349 27.588a.938.938 0 0 1-.663-1.601l2.124-2.124a.938.938 0 0 1 1.326 1.326l-2.124 2.124a.935.935 0 0 1-.663.275zM11.481 5.758a.936.936 0 0 1-.869-.586L9.486 2.388a.937.937 0 1 1 1.739-.702l1.126 2.784a.937.937 0 0 1-.869 1.289zM2.036 22.583a.937.937 0 0 1-.351-1.806l2.784-1.126a.937.937 0 1 1 .702 1.738l-2.784 1.126a.926.926 0 0 1-.351.069zM10.288 30.875a.938.938 0 0 1-.867-1.293l1.139-2.779a.938.938 0 0 1 1.735.711l-1.139 2.779a.938.938 0 0 1-.868.582zM4.841 12.365a.947.947 0 0 1-.355-.07l-2.779-1.139a.938.938 0 0 1 .711-1.735l2.779 1.139a.938.938 0 0 1-.356 1.805z" style="fill:var(--color1, #fdbf00)"/>
      <path fill="#4793ff" d="M31.063 15.063h-1.457l.714-1.237a.938.938 0 0 0-1.624-.938l-1.256 2.175h-9.177l6.489-6.489 2.425.65a.937.937 0 0 0 .485-1.811l-1.38-.37.942-.942a.938.938 0 0 0-1.326-1.326l-.942.942-.37-1.38a.938.938 0 0 0-1.811.485l.65 2.425-6.489 6.489V4.559l2.175-1.256a.938.938 0 0 0-.938-1.624l-1.237.714V.936a.938.938 0 0 0-.938-.938v32c.518 0 .938-.42.938-.938v-1.457l1.237.714a.938.938 0 1 0 .938-1.624l-2.175-1.256V18.26l6.489 6.489-.65 2.426a.938.938 0 0 0 1.811.485l.37-1.38.942.942a.935.935 0 0 0 1.326 0 .938.938 0 0 0 0-1.326l-.942-.942 1.38-.37a.938.938 0 0 0-.485-1.811l-2.425.65-6.489-6.489h9.177l1.256 2.175a.938.938 0 1 0 1.624-.938l-.714-1.237h1.457a.938.938 0 0 0 0-1.876z" style="fill:var(--color10, #4793ff)"/>
    </symbol>
    <symbol id="icon-moon" viewBox="0 0 32 32">
      <path fill="#f9f3f1" d="M19.252 27.633c.052.536.09 1.069-.061 1.601-.392 1.382-1.218 2.331-2.638 2.709-.035.009-.06.052-.071.099-2.941.021-5.9.021-8.894-.002-.085-.049-.134-.087-.188-.101-.749-.188-1.425-.526-1.981-1.06-.978-.939-1.45-2.077-1.429-3.457.026-1.711 1.18-3.28 2.653-3.94.778-.349 1.588-.407 2.41-.346.465.034.693-.13.889-.547.516-1.101 1.38-1.85 2.537-2.284 1.941.8 2.879 2.308 3.102 4.306.269.041.509.059.739.116 1.453.358 2.407 1.242 2.819 2.693.021.076.076.142.115.213z" style="fill:var(--color1, #f9f3f1)"/>
      <path fill="#f3eae6" d="M12.454 20.302c-1.135.436-1.999 1.186-2.515 2.286-.195.417-.423.582-.889.547-.822-.061-1.632-.003-2.41.346-1.473.661-2.627 2.229-2.653 3.94-.021 1.38.451 2.518 1.429 3.457.556.534 1.232.872 1.981 1.06a.406.406 0 0 1 .159.101c-1.226.023-2.456.023-3.716.023-.059-.041-.083-.11-.121-.12a4.326 4.326 0 0 1-2.025-1.157 4.427 4.427 0 0 1-1.268-2.548c-.146-.983-.003-1.911.465-2.766.722-1.321 1.827-2.151 3.347-2.339.541-.067 1.092-.049 1.69-.072.12-.05.222-.084.251-.15.483-1.099 1.266-1.912 2.34-2.482.546-.162 1.062-.384 1.598-.458.795-.11 1.596-.05 2.336.331z" style="fill:var(--color2, #f3eae6)"/>
      <path fill="#ffd15c" d="M19.625 5.177c-.247.136-.496.268-.739.41-.329.192-.676.282-.986.012-.278-.242-.172-.586-.128-.9.036-.262.107-.527.088-.785-.012-.164-.135-.338-.249-.474-.228-.275-.529-.499-.717-.796-.252-.398.031-.847.505-.897.313-.033.627-.069.934-.136.455-.1.541-.529.729-.868.124-.222.273-.43.392-.662.213-.019.443-.019.703-.019.112.15.196.299.271.491-.071.11-.135.179-.198.247-.664.722-1.042 1.553-1.051 2.553-.006.653.177 1.245.445 1.824z" style="fill:var(--color3, #ffd15c)"/>
      <path fill="#ffe177" d="M12.476 20.304c-.762-.383-1.562-.444-2.358-.334-.536.074-1.051.296-1.598.435-.043-.087-.058-.158-.087-.224-.579-1.323-.956-2.707-1.038-4.142-.057-.989.004-1.995.114-2.982.205-1.835.893-3.51 1.872-5.067a12.375 12.375 0 0 1 3.115-3.366c.678-.503 1.451-.879 2.181-1.312.056.314-.075.552-.288.77-1.255 1.281-2.137 2.783-2.495 4.543a10.755 10.755 0 0 0-.189 2.45c.032 1.044.316 2.052.736 3.016a8.62 8.62 0 0 0 1.989 2.858c1.263 1.19 2.742 2.007 4.47 2.292.695.115 1.408.206 2.108.181 1.509-.053 2.948-.438 4.226-1.265.613-.397 1.19-.861 1.73-1.353.719-.655 1.735-.369 1.936.513.047.206.003.446-.048.659a13.147 13.147 0 0 1-2.056 4.547c-.352.501-.792.939-1.195 1.405-.653.755-1.428 1.377-2.252 1.92-1.209.797-2.514 1.409-3.94 1.726-.038.008-.072.034-.133.055a.524.524 0 0 1-.14-.209c-.412-1.452-1.366-2.335-2.819-2.693-.23-.057-.47-.075-.739-.116-.223-1.999-1.161-3.506-3.102-4.306z" style="fill:var(--color4, #ffe177)"/>
      <path fill="#ffd15b" d="M14.682 3.287c-.735.459-1.508.834-2.186 1.338a12.36 12.36 0 0 0-3.115 3.366c-.979 1.557-1.667 3.232-1.872 5.067-.11.987-.171 1.993-.114 2.982.082 1.435.459 2.819 1.038 4.142.029.066.044.137.065.23-1.052.588-1.835 1.401-2.318 2.5-.029.066-.13.1-.222.146-.279-.389-.54-.77-.787-1.161a12.985 12.985 0 0 1-1.746-4.361 13.17 13.17 0 0 1-.225-3.472c.082-1.367.393-2.695.912-3.975A13.014 13.014 0 0 1 5.71 7.213a12.572 12.572 0 0 1 2.687-2.694c1.242-.905 2.586-1.613 4.073-2.024.388-.107.788-.208 1.187-.234.586-.038 1.012.408 1.025 1.026z" style="fill:var(--color5, #ffd15b)"/>
      <path fill="#f9f3f1" d="M26.002 6.243c.677.107 1.196.483 1.616.995.186.227.289.521.455.768.048.071.183.104.282.115.476.05.979.005 1.425.144 1.337.417 2.079 1.644 1.961 2.973-.119 1.337-1.004 2.252-2.298 2.567-.245.06-.508.066-.763.067-1.79.005-3.581.002-5.401-.026-.113-.092-.194-.158-.278-.221-.293-.22-.63-.4-.871-.667-.608-.675-.734-1.482-.407-2.319.34-.871 1.014-1.375 1.94-1.505.213-.03.261-.084.283-.293.084-.771.416-1.43 1.027-1.917.321-.256.685-.457 1.03-.682z" style="fill:var(--color1, #f9f3f1)"/>
      <path fill="#f3eae6" d="M25.99 6.221c-.333.248-.697.449-1.018.705-.61.487-.943 1.146-1.027 1.917-.023.208-.07.263-.283.293-.926.129-1.6.633-1.94 1.505-.327.838-.202 1.644.407 2.319.241.267.578.446.871.667.084.063.166.129.249.217-.724.04-1.455.101-2.141-.217-.748-.347-1.291-1.036-1.356-1.93-.057-.781.165-1.469.771-1.995.379-.329.81-.569 1.33-.571.199-.001.261-.063.278-.267.07-.877.494-1.571 1.174-2.111.672-.533 1.454-.683 2.288-.624.129.009.257.047.397.094z" style="fill:var(--color2, #f3eae6)"/>
      <path fill="#ffe177" d="M19.652 5.182c-.294-.583-.477-1.175-.471-1.829.009-1 .387-1.831 1.051-2.553.063-.069.127-.137.2-.225.129.2.27.411.364.641.106.259.314.356.55.403.298.06.613.053.9.143.187.058.401.203.486.368a.55.55 0 0 1-.132.681c-.185.167-.341.37-.535.523-.377.297-.402.666-.295 1.091.057.225.095.461.101.693.013.494-.431.785-.883.582-.276-.124-.529-.297-.806-.417-.153-.066-.334-.067-.529-.102zM29.007 25.745c.015.012.04.022.044.037.196.748.73.966 1.443.98.305.006.651.057.76.462.081.299-.028.566-.264.785-.288.266-.695.473-.74.908-.03.296.077.604.099.908.02.276.135.566-.13.809-.236.217-.489.239-.762.118-.183-.081-.345-.214-.531-.285-.241-.092-.497-.147-.776-.244-.661-1.363-.653-2.664.227-3.893.163-.228.269-.556.631-.584z" style="fill:var(--color4, #ffe177)"/>
      <path fill="#ffd15c" d="M29.004 25.722c-.36.051-.465.379-.628.607-.88 1.229-.888 2.53-.253 3.888-.262.17-.525.322-.792.466-.284.153-.567.214-.86.007-.334-.236-.228-.565-.191-.873.032-.269.142-.535.136-.8-.004-.17-.131-.359-.251-.498-.232-.269-.528-.487-.743-.767-.29-.378-.019-.895.455-.942.314-.031.637-.044.933-.139.191-.061.375-.229.499-.396.16-.217.265-.477.378-.726.123-.274.331-.466.618-.472.289-.006.502.188.627.456.025.055.046.111.072.189z" style="fill:var(--color3, #ffd15c)"/>
    </symbol>
    <symbol id="icon-line" viewBox="0 0 3 32">
      <path stroke-width="1.28" d="M1.28 0v32"/>
    </symbol>
  </defs>
</svg>
